<?xml version="1.0" standalone="no"?>
<!DOCTYPE svg PUBLIC "-//W3C//DTD SVG 20010904//EN"
 "http://www.w3.org/TR/2001/REC-SVG-20010904/DTD/svg10.dtd">
<svg version="1.0" xmlns="http://www.w3.org/2000/svg"
 width="400.000000pt" height="162.000000pt" viewBox="0 0 400.000000 162.000000"
 preserveAspectRatio="xMidYMid meet">

<g transform="translate(0.000000,162.000000) scale(0.100000,-0.100000)"
fill="#000000" stroke="none">
<path d="M388 983 l-3 -138 -148 -3 -149 -3 7 23 c13 44 55 107 92 137 46 38
115 72 126 62 4 -5 7 -41 5 -82 l-3 -74 -47 -3 -48 -3 0 47 0 48 -31 -30 c-27
-26 -59 -73 -59 -89 0 -3 47 -5 105 -5 l105 0 0 121 c0 120 0 120 -22 114 -53
-16 -126 -55 -165 -89 -44 -38 -103 -143 -103 -183 l0 -23 171 0 c157 0 170
-1 167 -17 -3 -16 -21 -18 -176 -21 -142 -2 -172 -5 -172 -17 0 -12 30 -15
172 -17 155 -3 173 -5 176 -20 3 -17 -10 -18 -169 -18 l-172 0 6 -34 c15 -92
87 -179 189 -231 39 -19 77 -35 84 -35 11 0 14 25 14 120 l0 120 -105 0 c-78
0 -105 -3 -105 -13 0 -19 48 -85 70 -97 19 -10 20 -7 20 35 l0 46 47 -3 48 -3
-4 -80 c-1 -44 -4 -81 -6 -83 -8 -8 -103 50 -131 80 -27 28 -84 125 -84 143 0
3 66 4 148 3 l147 -3 3 -132 c2 -109 5 -133 17 -133 13 0 15 23 15 135 l0 135
150 0 150 0 -10 -25 c-32 -84 -76 -138 -141 -170 -27 -14 -53 -25 -59 -25 -6
0 -10 32 -10 80 l0 80 45 0 45 0 0 -47 0 -46 26 24 c14 13 35 41 45 61 l19 38
-110 0 -110 0 0 -120 c0 -119 0 -120 23 -120 13 0 53 15 88 32 81 42 141 113
167 200 l20 63 -169 3 c-161 2 -169 3 -169 22 0 19 7 20 170 20 144 0 170 2
170 15 0 13 -26 15 -170 15 -163 0 -170 1 -170 20 0 19 7 20 165 20 l165 0 0
28 c0 42 -48 131 -98 180 -43 44 -99 74 -159 87 l-33 7 0 -121 0 -121 110 0
111 0 -12 23 c-19 36 -59 87 -70 87 -5 0 -9 -18 -9 -40 l0 -40 -45 0 -45 0 0
81 c0 79 0 80 23 74 71 -22 132 -76 171 -152 32 -63 31 -63 -129 -63 l-145 0
0 140 c0 117 -2 140 -15 140 -12 0 -15 -24 -17 -137z"/>
<path d="M1500 958 c-24 -13 -58 -40 -74 -61 -29 -36 -31 -45 -31 -116 0 -67
4 -83 27 -118 73 -111 271 -117 351 -11 63 83 58 197 -12 267 -63 63 -179 81
-261 39z m154 -29 c37 -17 58 -70 58 -149 0 -123 -55 -187 -139 -162 -50 15
-74 56 -81 138 -5 73 16 144 51 169 25 18 76 19 111 4z"/>
<path d="M1944 966 c-43 -19 -64 -53 -64 -104 0 -75 22 -94 145 -128 73 -20
105 -39 105 -63 0 -68 -146 -68 -194 1 l-16 23 -27 -27 -26 -27 48 -30 c43
-27 58 -31 122 -31 41 0 89 6 108 14 61 26 84 109 44 160 -27 34 -59 50 -139
71 -78 20 -90 29 -90 66 0 34 27 49 87 49 29 0 44 -8 73 -39 l38 -40 21 23 21
22 -28 25 c-15 14 -40 31 -55 37 -37 16 -134 15 -173 -2z"/>
<path d="M3343 961 c-26 -12 -52 -35 -70 -62 -27 -40 -28 -49 -31 -176 l-4
-133 51 0 51 0 0 45 0 45 60 0 c53 0 60 2 60 20 0 18 -7 20 -61 20 l-62 0 5
79 c5 88 23 127 63 137 40 10 73 -4 91 -38 24 -46 15 -252 -14 -326 -19 -50
-19 -53 -2 -62 23 -12 61 30 99 110 22 47 26 69 26 146 0 83 -2 94 -29 132
-52 76 -147 101 -233 63z"/>
<path d="M960 775 l0 -195 50 0 49 0 3 88 3 87 70 0 70 0 3 -87 3 -88 49 0 50
0 0 195 0 195 -50 0 -50 0 0 -85 0 -85 -75 0 -75 0 0 85 0 85 -50 0 -50 0 0
-195z"/>
<path d="M2290 775 l0 -195 50 0 50 0 0 75 0 75 65 0 c111 0 164 35 172 114 4
33 1 53 -11 72 -29 42 -72 54 -206 54 l-120 0 0 -195z m219 139 c30 -38 28
-98 -4 -129 -18 -19 -35 -25 -70 -25 l-45 0 0 90 0 90 49 0 c42 0 53 -4 70
-26z"/>
<path d="M2700 775 l0 -195 50 0 50 0 0 195 0 195 -50 0 -50 0 0 -195z"/>
<path d="M2860 950 c0 -18 7 -20 55 -20 l55 0 0 -175 0 -175 50 0 50 0 0 175
0 175 55 0 c48 0 55 2 55 20 0 19 -7 20 -160 20 -153 0 -160 -1 -160 -20z"/>
<path d="M3690 775 l0 -195 140 0 140 0 0 25 c0 25 -1 25 -90 25 l-90 0 0 170
0 170 -50 0 -50 0 0 -195z"/>
</g>
</svg>
